<svg xmlns="http://www.w3.org/2000/svg" xmlns:xlink="http://www.w3.org/1999/xlink" width="60px" height="60px" viewBox="0 0 60 60" version="1.1"><SCRIPT xmlns="" id="allow-copy_script"/><script xmlns=""/><script xmlns=""/>
<g id="surface1">
<path style=" stroke:none;fill-rule:nonzero;fill:rgb(0%,50.980392%,100%);fill-opacity:1;" d="M 60 30 C 60 46.570312 46.570312 60 30 60 C 13.429688 60 0 46.570312 0 30 C 0 13.429688 13.429688 0 30 0 C 46.570312 0 60 13.429688 60 30 Z M 60 30 "/>
<path style=" stroke:none;fill-rule:nonzero;fill:rgb(100%,100%,100%);fill-opacity:1;" d="M 30 14.210938 C 21.28125 14.210938 14.210938 20.761719 14.210938 28.847656 C 14.246094 33.371094 16.429688 37.609375 20.09375 40.261719 L 20.15625 45.421875 C 20.15625 45.550781 20.226562 45.671875 20.339844 45.734375 C 20.453125 45.796875 20.589844 45.796875 20.703125 45.734375 L 25.632812 42.933594 C 27.058594 43.3125 28.527344 43.5 30 43.496094 C 38.71875 43.496094 45.789062 36.945312 45.789062 28.859375 C 45.789062 20.773438 38.71875 14.210938 30 14.210938 Z M 31.183594 33.550781 L 27.808594 30.039062 C 27.609375 29.835938 27.300781 29.785156 27.046875 29.921875 L 21.125 33.109375 C 21.027344 33.15625 20.914062 33.128906 20.847656 33.042969 C 20.78125 32.957031 20.785156 32.835938 20.855469 32.753906 L 27.867188 25.363281 C 27.964844 25.257812 28.097656 25.203125 28.238281 25.203125 C 28.378906 25.203125 28.511719 25.257812 28.605469 25.363281 L 31.972656 28.941406 C 32.171875 29.152344 32.484375 29.203125 32.738281 29.066406 L 38.5625 25.90625 C 38.660156 25.847656 38.789062 25.871094 38.859375 25.960938 C 38.929688 26.054688 38.917969 26.183594 38.835938 26.261719 L 31.933594 33.574219 C 31.839844 33.679688 31.703125 33.738281 31.558594 33.742188 C 31.417969 33.742188 31.28125 33.683594 31.183594 33.578125 Z M 31.183594 33.550781 "/>
</g>
</svg>