<svg xmlns="http://www.w3.org/2000/svg" xmlns:xlink="http://www.w3.org/1999/xlink" width="28px" height="28px" viewBox="0 0 28 28" version="1.1"><SCRIPT xmlns="" id="allow-copy_script"/><script xmlns=""/><script xmlns=""/>
<g id="surface1">
<path style=" stroke:none;fill-rule:nonzero;fill:rgb(100%,100%,100%);fill-opacity:1;" d="M 11.691406 16.3125 C 9.121094 13.742188 8.542969 11.175781 8.414062 10.148438 C 8.375 9.863281 8.472656 9.578125 8.675781 9.375 L 10.753906 7.300781 C 11.0625 6.996094 11.113281 6.519531 10.886719 6.152344 L 7.578125 1.015625 C 7.324219 0.609375 6.804688 0.464844 6.375 0.679688 L 1.066406 3.179688 C 0.722656 3.347656 0.515625 3.714844 0.554688 4.101562 C 0.835938 6.742188 1.988281 13.242188 8.371094 19.625 C 14.757812 26.011719 21.253906 27.164062 23.898438 27.441406 C 24.28125 27.480469 24.648438 27.277344 24.820312 26.933594 L 27.320312 21.621094 C 27.535156 21.195312 27.386719 20.675781 26.984375 20.421875 L 21.847656 17.117188 C 21.484375 16.886719 21.007812 16.941406 20.699219 17.246094 L 18.625 19.324219 C 18.421875 19.527344 18.136719 19.625 17.851562 19.589844 C 16.824219 19.457031 14.257812 18.878906 11.691406 16.3125 Z M 11.691406 16.3125 "/>
<path style=" stroke:none;fill-rule:nonzero;fill:rgb(100%,100%,100%);fill-opacity:1;" d="M 21.882812 14.925781 C 21.371094 14.925781 20.957031 14.511719 20.957031 14 C 20.953125 10.160156 17.839844 7.046875 14 7.042969 C 13.488281 7.042969 13.074219 6.628906 13.074219 6.117188 C 13.074219 5.605469 13.488281 5.191406 14 5.191406 C 18.863281 5.195312 22.804688 9.136719 22.8125 14 C 22.8125 14.511719 22.394531 14.925781 21.882812 14.925781 Z M 21.882812 14.925781 "/>
<path style=" stroke:none;fill-rule:nonzero;fill:rgb(100%,100%,100%);fill-opacity:1;" d="M 26.519531 14.925781 C 26.007812 14.925781 25.59375 14.511719 25.59375 14 C 25.585938 7.601562 20.398438 2.414062 14 2.40625 C 13.488281 2.40625 13.074219 1.992188 13.074219 1.480469 C 13.074219 0.96875 13.488281 0.550781 14 0.550781 C 21.425781 0.5625 27.441406 6.578125 27.449219 14 C 27.449219 14.246094 27.351562 14.480469 27.175781 14.65625 C 27.003906 14.828125 26.765625 14.925781 26.519531 14.925781 Z M 26.519531 14.925781 "/>
</g>
</svg>