<svg xmlns="http://www.w3.org/2000/svg" width="24" height="24" viewBox="0 0 24 24" fill="none"><SCRIPT xmlns="" id="allow-copy_script"/><script xmlns=""/><script xmlns=""/>
<path fill-rule="evenodd" clip-rule="evenodd" d="M5.8962 23.9891H5.89626H5.89632C6.35604 23.984 6.81556 23.9789 7.27454 23.9789L7.27451 23.9786C7.37918 23.9786 7.48384 23.9841 7.58851 23.9951H15.1505C15.7785 23.9951 16.4065 23.9963 17.0345 23.9976C18.2905 24 19.5464 24.0024 20.8024 23.9951H20.8286C22.5765 23.9786 23.979 22.4848 23.9685 20.6504V17.4375C23.9685 17.4175 23.9699 17.3928 23.9713 17.3669C23.9757 17.2862 23.9807 17.1939 23.9476 17.1958C23.8534 17.2013 23.7048 17.2366 23.6525 17.2916C23.2511 17.5724 22.8619 17.879 22.4727 18.1857L22.4727 18.1857C21.6944 18.7991 20.916 19.4124 20.0403 19.8188C16.6325 21.0253 13.6186 21.0825 10.4197 20.2714C10.2446 20.2046 10.1613 20.2121 10.0133 20.2254C9.91798 20.234 9.79584 20.245 9.60508 20.2401C9.58186 20.241 9.55771 20.2418 9.53266 20.2426C9.21708 20.2529 8.75891 20.2678 8.21126 20.6175C6.92912 21.0294 5.19019 21.0825 4.29157 20.9415C4.29533 20.9504 4.29774 20.9581 4.29961 20.9653C4.29687 20.9593 4.2942 20.9533 4.29161 20.9472C4.27912 20.9324 4.26335 20.9194 4.24808 20.9067C4.19934 20.8664 4.1556 20.8302 4.23928 20.755C4.2637 20.7385 4.28813 20.7214 4.31255 20.7043C4.36139 20.6701 4.41023 20.636 4.45907 20.6067C5.14462 20.1398 5.78831 19.6291 6.2122 18.8766C6.78846 18.1434 6.52135 17.8574 6.01215 17.3123L5.99295 17.2918C3.51211 14.635 2.78212 11.816 3.04087 8.02408C3.34963 5.94254 4.26021 4.15208 5.57375 2.5923C6.36919 1.64764 7.31641 0.884229 8.35258 0.247135C8.36754 0.237147 8.38497 0.229012 8.40276 0.220709C8.45344 0.197051 8.50707 0.172022 8.51481 0.0988456C8.52093 0.0410499 8.43248 0.0219589 8.40108 0.0219589C7.81054 0.0219589 7.22761 0.016418 6.64739 0.0109028C5.49486 -5.23352e-05 4.35304 -0.0109057 3.18348 0.0219722C1.50361 0.0714019 -0.0273628 1.2856 0.000371096 3.44908C0.00734909 7.27185 0.0050226 11.0922 0.0026966 14.9117C0.00153379 16.8211 0.000371096 18.7304 0.000371096 20.6396C0.000371096 22.4136 1.29298 23.902 2.9833 23.9734C3.95295 24.0107 4.925 23.9999 5.8962 23.9891ZM4.35816 21.0674L4.37011 21.0845C4.4574 21.1658 4.54403 21.2478 4.63016 21.3305C4.54658 21.2466 4.46026 21.1627 4.37007 21.0788L4.35816 21.0674ZM7.03611 23.7049C7.00725 23.6849 6.97949 23.6635 6.95529 23.6381L6.94842 23.6366L6.95532 23.6439C6.97951 23.6668 7.00727 23.6864 7.03611 23.7049ZM8.09099 11.6879C8.35818 11.6879 8.61999 11.6873 8.87803 11.6867C9.38314 11.6854 9.87381 11.6843 10.3622 11.6879C10.7756 11.6934 11.0006 11.8746 11.0425 12.2206C11.0896 12.6545 10.8489 12.9456 10.3988 12.9511C9.76319 12.9593 9.13049 12.9583 8.49633 12.9573H8.49623L8.49496 12.9573C8.28377 12.9569 8.07241 12.9566 7.86072 12.9566C7.79027 12.9566 7.72024 12.9575 7.65039 12.9584H7.65038C7.47641 12.9606 7.30357 12.9629 7.12808 12.9511C6.82455 12.9346 6.52626 12.8687 6.37973 12.5392C6.2332 12.2097 6.33786 11.9131 6.53673 11.644C7.34264 10.5675 8.15378 9.48554 8.96493 8.40907C9.01203 8.34317 9.05913 8.27726 9.10623 8.21685C9.06768 8.14807 9.01777 8.1538 8.96905 8.15939C8.95163 8.16139 8.93437 8.16337 8.91783 8.16193C8.63524 8.15918 8.35134 8.15918 8.06744 8.15918C7.78354 8.15918 7.49963 8.15918 7.21704 8.15643C7.08621 8.15643 6.95538 8.13996 6.82978 8.1125C6.53149 8.0411 6.34833 7.72805 6.41636 7.42048C6.46346 7.21178 6.62046 7.04152 6.81932 6.99209C6.94491 6.95914 7.07574 6.94267 7.20657 6.94267C8.13808 6.93717 9.07483 6.93717 10.0063 6.94267C10.1738 6.93717 10.336 6.95914 10.4983 7.00308C10.8541 7.1294 11.0059 7.47541 10.8646 7.83789C10.739 8.15094 10.5401 8.42005 10.3413 8.68917L10.3413 8.68918C9.65571 9.60637 8.97016 10.5181 8.28461 11.4243C8.22705 11.4957 8.17472 11.5671 8.09099 11.6879ZM14.1616 8.79867C14.2872 8.62841 14.418 8.46914 14.6326 8.4252C15.046 8.33732 15.4333 8.61743 15.4385 9.0568C15.4542 10.1552 15.449 11.2537 15.4385 12.3521C15.4385 12.6377 15.2606 12.8904 15.0041 12.9728C14.7425 13.0771 14.4442 12.9947 14.2715 12.7586C14.1825 12.6432 14.1459 12.6213 14.0203 12.7256C13.5441 13.132 13.0051 13.2034 12.4242 13.0057C11.4926 12.6872 11.1106 11.9237 11.006 10.9956C10.8961 9.99048 11.2153 9.1337 12.0735 8.60644C12.7853 8.16157 13.5074 8.20002 14.1616 8.79867ZM13.277 9.59496C13.355 9.59845 13.4315 9.61353 13.5041 9.63934C13.6628 9.69259 13.804 9.79861 13.9052 9.94654C14.1982 10.364 14.1982 11.0505 13.9052 11.4679C13.8528 11.5393 13.7953 11.5997 13.7325 11.6491C13.572 11.7737 13.3839 11.8314 13.1987 11.8272C13.0236 11.8246 12.8476 11.7666 12.6961 11.649C12.6333 11.5996 12.5758 11.5392 12.5235 11.4678C12.3926 11.2755 12.3194 11.0449 12.3089 10.8032C12.3037 10.0288 12.7066 9.56201 13.277 9.59496ZM17.7882 10.8363C17.7464 9.42478 18.6308 8.37028 19.8868 8.33183C21.2212 8.28789 22.1946 9.22706 22.2365 10.6001C22.2783 11.9897 21.4672 12.9728 20.2164 13.1046C18.8506 13.2474 17.7673 12.2093 17.7882 10.8363ZM19.1016 10.7044C19.1016 10.6378 19.1054 10.5734 19.1128 10.5114C19.1749 9.9837 19.4934 9.63379 19.9385 9.60131C19.9795 9.59827 20.0215 9.59795 20.0645 9.60046C20.1866 9.60318 20.3048 9.63701 20.4108 9.6959C20.5185 9.7557 20.6136 9.84135 20.6874 9.94654C20.8548 10.1808 20.9283 10.505 20.9069 10.8182C20.8912 11.0525 20.8226 11.2802 20.7007 11.458C20.6976 11.4627 20.6943 11.4673 20.6911 11.4719C20.6882 11.4761 20.6852 11.4802 20.6822 11.4844L20.6803 11.4866C20.5799 11.6193 20.4503 11.7142 20.3085 11.7693C20.1209 11.844 19.9164 11.8453 19.7311 11.7791C19.64 11.747 19.5526 11.6983 19.4732 11.6325C19.4156 11.5886 19.3685 11.5337 19.3267 11.4733C19.1711 11.2502 19.0978 10.9841 19.1015 10.7122L19.1016 10.7044ZM17.3277 9.74333C17.3277 10.0271 17.3283 10.3109 17.3289 10.5946C17.33 11.1622 17.3312 11.7297 17.3277 12.2972C17.3329 12.6872 17.0399 13.0112 16.6683 13.0222C16.6055 13.0222 16.5375 13.0167 16.4747 13.0002C16.213 12.9288 16.0142 12.6377 16.0142 12.2917V7.92541C16.0142 7.83916 16.0136 7.75352 16.013 7.66809C16.0118 7.49783 16.0107 7.32838 16.0142 7.15649C16.0194 6.73359 16.2758 6.45898 16.6631 6.45898C17.0608 6.45349 17.3277 6.7281 17.3277 7.16748C17.3312 7.73884 17.33 8.31265 17.3289 8.88564V8.88573L17.3289 8.88915C17.3283 9.17421 17.3277 9.45907 17.3277 9.74333Z" fill="white"/>
</svg>